<?xml version="1.0" encoding="UTF-8" standalone="no"?>
<svg
   xmlns:dc="http://purl.org/dc/elements/1.1/"
   xmlns:cc="http://creativecommons.org/ns#"
   xmlns:rdf="http://www.w3.org/1999/02/22-rdf-syntax-ns#"
   xmlns:svg="http://www.w3.org/2000/svg"
   xmlns="http://www.w3.org/2000/svg"
   xmlns:sodipodi="http://sodipodi.sourceforge.net/DTD/sodipodi-0.dtd"
   xmlns:inkscape="http://www.inkscape.org/namespaces/inkscape"
   width="24"
   height="24"
   viewBox="0 0 24 24"
   version="1.1"
   id="svg16"
   sodipodi:docname="mm_head.svg"
   inkscape:version="0.92.2 (unknown)"
   inkscape:export-filename="/home/kevin/.android/SourcesAndroid/Applications/LollipopLand/MarshmallowLand/MarshmallowLand/artwork/MM_Head.png"
   inkscape:export-xdpi="4000"
   inkscape:export-ydpi="4000">
  <metadata
     id="metadata22">
    <rdf:RDF>
      <cc:Work
         rdf:about="">
        <dc:format>image/svg+xml</dc:format>
        <dc:type
           rdf:resource="http://purl.org/dc/dcmitype/StillImage" />
        <dc:title />
      </cc:Work>
    </rdf:RDF>
  </metadata>
  <defs
     id="defs20" />
  <sodipodi:namedview
     pagecolor="#ffffff"
     bordercolor="#666666"
     borderopacity="1"
     objecttolerance="10"
     gridtolerance="10"
     guidetolerance="10"
     inkscape:pageopacity="0"
     inkscape:pageshadow="2"
     inkscape:window-width="1650"
     inkscape:window-height="1021"
     id="namedview18"
     showgrid="true"
     inkscape:zoom="22.627417"
     inkscape:cx="11.419458"
     inkscape:cy="11.880932"
     inkscape:window-x="30"
     inkscape:window-y="0"
     inkscape:window-maximized="1"
     inkscape:current-layer="svg16"
     inkscape:pagecheckerboard="true">
    <inkscape:grid
       type="xygrid"
       id="grid4518" />
  </sodipodi:namedview>
  <rect
     style="fill:#a1887f;fill-opacity:1;fill-rule:evenodd;stroke:none;stroke-width:0.9966957;stroke-miterlimit:4;stroke-dasharray:none;stroke-opacity:0.94957981"
     id="rect4520"
     width="1.5"
     height="4.02"
     x="11.22"
     y="19.980001"
     ry="0"
     inkscape:label="mm_pipe" />
  <path
     fill="#FFFFFFFF"
     d="M 18.6,5.4 C 18.1,5 16,4 12,4 8,4 5.9,5 5.4,5.4 5,5.9 4,8 4,12 4,16 5,18.1 5.4,18.6 5.9,19 8,20 12,20 16,20 18.1,19 18.6,18.6 19,18.1 20,16 20,12 20,8 19,5.9 18.6,5.4 Z"
     id="path6"
     inkscape:label="mm_head"
     inkscape:connector-curvature="0"
     style="display:inline;fill-rule:nonzero;fill:#ffffff;fill-opacity:1" />
  <path
     fill="#FF000000"
     d="M7.4,11.7c-0.6,0,-0.7,0.7,-0.7,0.3c0,-0.4,0.3,-0.7,0.7,-0.7C7.7,11.3,8,11.6,8,12C8,12.4,7.9,11.7,7.4,11.7z   "
     id="path2"
     inkscape:label="mm_eyes2_left" />
  <path
     fill="#FF000000"
     d="M16.6,11.7c-0.6,0,-0.7,0.7,-0.7,0.3c0,-0.4,0.3,-0.7,0.7,-0.7s0.7,0.3,0.7,0.7C17.3,12.4,17.2,11.7,16.6,11.7   z"
     id="path4"
     inkscape:label="mm_eyes2_right"
     style="fill:#000000;fill-opacity:1" />
  <path
     fill="#33000000"
     d="M5.4,5.7            a 6.6 1.7 0 1 1 13.2 0            a 6.6 1.7 0 1 1 -13.2 0            z"
     id="path8"
     inkscape:label="mm_head_top"
     style="fill:#cccccc;fill-opacity:1" />
  <path
     fill="#FFFFFFFF"
     d="M15.6,5.5C15.5,5.5,15.5,5.5,15.6,5.5c-0.3,-0.3,-0.3,-0.6,-0.1,-0.8l2.4,-2.5c0.2,-0.2,0.5,-0.2,0.7,0   c0.2,0.2,0.2,0.5,0,0.7l-2.4,2.5C16,5.6,15.8,5.7,15.6,5.5z"
     id="path10"
     inkscape:label="mm_antennae2_right"
     style="fill:#ffffff;fill-opacity:1" />
  <path
     fill="#FFFFFFFF"
     d="M8.4,5.6C8.2,5.7,8,5.6,7.8,5.5L5.5,3c-0.2,-0.2,-0.2,-0.5,0,-0.7c0.2,-0.2,0.5,-0.2,0.7,0l2.4,2.5   C8.7,5,8.7,5.3,8.4,5.6C8.5,5.5,8.5,5.5,8.4,5.6z"
     id="path12"
     inkscape:label="mm_antennae2_left"
     style="fill:#ffffff;fill-opacity:1" />
  <path
     fill="#FF000000"
     d="M18.6,15.1c0,0,-0.1,0,-0.2,0c-0.3,0.3,-1.6,0.3,-3.1,0.3c-0.4,0,-0.9,0,-1.4,0c-0.6,0,-1.3,0,-2,0s-1.4,0,-2,0   c-0.5,0,-1,0,-1.4,0c-1.5,0,-2.8,0,-3.1,-0.3c0,0,-0.1,0,-0.2,0c0,0,0,0.1,0,0.1s0,0.1,0,0.1c0.6,0.6,3.1,1,6.6,1s6.1,-0.4,6.6,-1   C18.7,15.2,18.7,15.2,18.6,15.1C18.7,15.1,18.7,15.1,18.6,15.1z"
     id="path14"
     inkscape:label="mm_mouth2"
     style="fill:#000000;fill-opacity:1" />
</svg>
